<svg xmlns="http://www.w3.org/2000/svg" xmlns:xlink="http://www.w3.org/1999/xlink" width="947" height="947" viewBox="0 0 947 947"><defs><linearGradient id="a" x1="0.5" x2="0.5" y2="1" gradientUnits="objectBoundingBox"><stop offset="0" stop-color="#700"/><stop offset="1" stop-color="#0a090a"/></linearGradient></defs><g transform="translate(-67 -67)"><rect width="947" height="947" transform="translate(67 67)" fill="url(#a)"/><text transform="translate(134.593 581)" fill="#d5ff00" font-size="107" font-family="Roboto-Medium, Roboto" font-weight="500"><tspan x="0" y="0">9</tspan></text><text transform="translate(884.593 581)" fill="#d5ff00" font-size="107" font-family="Roboto-Medium, Roboto" font-weight="500"><tspan x="0" y="0">3</tspan></text><text transform="translate(509.593 944)" fill="#d5ff00" font-size="107" font-family="Roboto-Medium, Roboto" font-weight="500"><tspan x="0" y="0">6</tspan></text><text transform="translate(479.754 208)" fill="#d5ff00" font-size="106" font-family="Roboto-Medium, Roboto" font-weight="500"><tspan x="0" y="0">12</tspan></text><rect width="7.577" height="56.831" rx="3.789" transform="translate(731.255 193.949) rotate(30)" fill="#bdbdbd"/><rect width="7.577" height="56.831" rx="3.789" transform="translate(878.974 335.756) rotate(60)" fill="#bdbdbd"/><rect width="7.577" height="56.831" rx="3.789" transform="translate(887.051 731.254) rotate(120)" fill="#bdbdbd"/><rect width="7.577" height="56.831" rx="3.789" transform="translate(745.245 878.974) rotate(150)" fill="#bdbdbd"/><rect width="7.577" height="56.831" rx="3.789" transform="translate(349.746 887.051) rotate(-150)" fill="#bdbdbd"/><rect width="7.577" height="56.831" rx="3.789" transform="translate(202.026 745.244) rotate(-120)" fill="#bdbdbd"/><rect width="7.577" height="56.831" rx="3.789" transform="translate(193.949 349.745) rotate(-60)" fill="#bdbdbd"/><rect width="7.577" height="56.831" rx="3.789" transform="translate(335.755 202.026) rotate(-30)" fill="#bdbdbd"/></g></svg>